<?xml version="1.0" standalone="no"?><!DOCTYPE svg PUBLIC "-//W3C//DTD SVG 1.1//EN" "http://www.w3.org/Graphics/SVG/1.1/DTD/svg11.dtd"><svg class="icon" width="25px" height="25.00px" viewBox="0 0 1024 1024" version="1.1" xmlns="http://www.w3.org/2000/svg"><path fill="#1296db" d="M528 32c-202.944 0-368 164.8-368 367.36 0 75.2 22.656 147.584 65.024 208.48 2.112 3.648 4.256 7.168 6.784 10.592l268.608 353.472C507.712 980 517.504 984.48 528 984.48c10.368 0 20.224-4.512 28.768-14.08l267.36-352c2.624-3.52 4.896-7.36 6.112-9.6A364.864 364.864 0 0 0 896 399.36C896 196.8 730.912 32 528 32z m0 498.72a131.52 131.52 0 0 1-131.456-131.232 131.488 131.488 0 0 1 262.88 0A131.52 131.52 0 0 1 528 530.688z" /></svg>