<?xml version="1.0" standalone="no"?><!DOCTYPE svg PUBLIC "-//W3C//DTD SVG 1.1//EN" "http://www.w3.org/Graphics/SVG/1.1/DTD/svg11.dtd"><svg class="icon" width="25px" height="25.00px" viewBox="0 0 1024 1024" version="1.1" xmlns="http://www.w3.org/2000/svg"><path d="M811.862928 127.601246c-165.88162-165.88162-430.654206-165.88162-596.535825-3.190031-165.88162 165.88162-169.071651 433.844237-3.190031 599.725857l296.672897 299.862928 299.862928-296.672897c165.88162-165.88162 169.071651-433.844237 3.190031-599.725857z m-309.433021 114.841122h178.641744v159.501557h-31.900311v-15.950156H543.900312v105.271029c0 15.950156 6.380062 22.330218 22.330218 22.330218h76.560747c15.950156 0 25.520249-6.380062 28.710281-22.330218 3.190031-12.760125 3.190031-31.900312 6.380062-57.420561 9.570093 3.190031 19.140187 9.570093 31.900311 12.760124-3.190031 28.71028-6.380062 47.850467-6.380062 60.610592-3.190031 25.520249-22.330218 35.090343-54.230529 35.090343h-86.130842c-31.900312 0-47.850467-15.950156-47.850467-51.040498V350.903427h137.17134V274.342679h-143.551402v-31.900311zM703.401869 631.626168h-223.302181c-70.180685 0-118.031153-25.520249-143.551401-76.560747-9.570093 38.280374-19.140187 70.180685-35.090343 92.510903-6.380062-12.760125-12.760125-28.71028-19.140187-41.470405 22.330218-38.280374 35.090343-95.700935 35.090343-175.451713l31.900311 3.190031c0 28.71028-3.190031 54.23053-6.380062 79.750779 9.570093 22.330218 25.520249 41.470405 44.660436 57.42056v-162.691588H285.507788v-31.900312h89.320872v-63.800623H301.457944v-31.900312h73.370716v-63.800623h35.090343v60.610592h73.370717v31.900312h-73.370717v63.800623h82.94081v31.900311h-70.180685v66.990655h66.990654v31.900311h-66.990654v82.94081c19.140187 9.570093 44.660436 12.760125 70.180685 12.760125 70.180685 0 146.741433 0 226.492212-3.190031-9.570093 15.950156-12.760125 25.520249-15.950156 35.090342z" fill="#1afa29" /></svg>